<svg id="Capa_1" enable-background="new 0 0 512 512" height="512" viewBox="0 0 512 512" width="512" xmlns="http://www.w3.org/2000/svg"><g id="XMLID_1029_"><g id="XMLID_90_"><path id="XMLID_91_" d="m404.584 428.642h-43.584v-44h43.584c12.36 0 22.416-10.057 22.416-22.417v-129.892c0-12.36-10.056-22.417-22.416-22.417h-43.584v-44h43.584c36.622 0 66.416 29.795 66.416 66.417v129.892c0 36.622-29.794 66.417-66.416 66.417z" fill="#cbf4fb"/></g><path id="XMLID_1054_" d="m361 128v334c0 22.091-17.909 40-40 40h-240c-22.091 0-40-17.909-40-40v-356.8z" fill="#cbf4fb"/><path id="XMLID_89_" d="m85 105.201h232v117.788h-232z" fill="#ffe6b4"/><path id="XMLID_1615_" d="m85 222.989h232v225.011h-232z" fill="#ffcd69"/><circle id="XMLID_227_" cx="151" cy="297.279" fill="#ffe6b4" r="22"/><circle id="XMLID_88_" cx="251" cy="384" fill="#ffe6b4" r="22"/><path id="XMLID_1028_" d="m360.994 105.203s0-.001 0-.002c-.414-29.869-24.595-54.496-54.453-55.423-11.358-.353-21.99 2.663-30.971 8.123-12.944-28.259-41.454-47.901-74.57-47.901s-61.626 19.642-74.57 47.901c-8.981-5.46-19.612-8.476-30.969-8.123-29.859.926-54.04 25.552-54.455 55.422-.437 31.433 24.912 57.05 56.244 57.05 11.559 0 22.297-3.492 31.23-9.473 5.852-3.919 13.526-3.41 18.847 1.204 14.382 12.469 33.143 20.019 53.673 20.019 7.623 0 14.999-1.047 22-2.994v22.391c0 15.802 12.389 29.159 28.185 29.592 16.389.449 29.815-12.702 29.815-28.989v42c0 22.091 17.909 40 40 40 22.091 0 40-17.909 40-40v-130.799z" fill="#fff"/><g id="XMLID_174_"><path id="XMLID_182_" d="m404.584 155.917h-33.584v-27.917-22.799c0-.17-.004-.341-.013-.51-.329-16.896-7.083-32.887-19.044-45.063-12.052-12.268-28.066-19.317-45.092-19.846-9.335-.298-18.506 1.36-27.017 4.815-16.506-27.386-46.435-44.597-78.834-44.597s-62.328 17.212-78.835 44.599c-8.512-3.455-17.689-5.105-27.016-4.816-17.025.528-33.039 7.576-45.091 19.845-12.049 12.265-18.815 28.4-19.052 45.433v.003c0 .046-.007.09-.007.136v133.4c0 5.523 4.478 10 10 10s10-4.477 10-10v-85.192c6.944 6.781 15.104 11.866 24 15.027v279.565c0 5.523 4.478 10 10 10h232c5.522 0 10-4.477 10-10v-162.373c8.931-1.074 17.148-4.499 24-9.655v186.028c0 16.542-13.458 30-30 30h-239.999c-16.542 0-30-13.458-30-30v-133.551c0-5.523-4.478-10-10-10s-10 4.477-10 10v133.551c0 27.57 22.43 50 50 50h240c27.57 0 50-22.43 50-50v-23.358h33.584c42.136 0 76.416-34.28 76.416-76.417v-129.892c0-42.136-34.28-76.416-76.416-76.416zm-33.584 80.083v-16.083h33.584c6.847 0 12.416 5.57 12.416 12.417v129.892c0 6.847-5.569 12.417-12.416 12.417h-33.584zm-273.75-63.75c13.164 0 25.887-3.861 36.793-11.164 2.097-1.404 4.801-1.224 6.733.451 16.708 14.486 38.096 22.463 60.224 22.463 4.021 0 8.029-.262 12-.782v10.179c0 7.091 1.901 13.787 5.199 19.592h-123.199v-40.794c.749.025 1.497.055 2.25.055zm-2.25 265.75v-205.011h176v3.011c0 22.71 15.225 41.92 36 47.991v154.009zm226-172c-16.542 0-30-13.458-30-30v-42c0-5.523-4.478-10-10-10s-10 4.477-10 10c0 5.174-2.043 10.011-5.752 13.62-3.707 3.606-8.591 5.506-13.788 5.373-10.179-.279-18.46-9.07-18.46-19.596v-22.391c0-3.126-1.461-6.071-3.949-7.962-2.487-1.89-5.716-2.51-8.729-1.673-6.274 1.745-12.775 2.629-19.322 2.629-17.315 0-34.051-6.242-47.122-17.575-8.691-7.538-21.425-8.343-30.963-1.958-7.603 5.091-16.478 7.783-25.665 7.783-12.476 0-24.171-4.893-32.933-13.776-8.759-8.882-13.486-20.649-13.312-33.135.339-24.37 20.42-44.81 44.766-45.566 9.005-.283 17.823 2.027 25.464 6.673 2.44 1.483 5.396 1.853 8.127 1.016 2.73-.837 4.971-2.8 6.16-5.396 11.705-25.554 37.407-42.066 65.478-42.066s53.773 16.512 65.478 42.066c1.19 2.596 3.431 4.56 6.161 5.396 2.727.837 5.686.467 8.126-1.016 7.64-4.646 16.463-6.955 25.465-6.673 24.346.756 44.427 21.198 44.765 45.568.001.068.003.135.005.203v130.456c0 16.542-13.458 30-30 30zm140 96.225c0 31.108-25.309 56.417-56.416 56.417h-33.584v-24h33.584c17.874 0 32.416-14.542 32.416-32.417v-129.892c0-17.875-14.542-32.417-32.416-32.417h-33.584v-24h33.584c31.107 0 56.416 25.309 56.416 56.417z"/><path id="XMLID_1418_" d="m151 265.279c-17.645 0-32 14.355-32 32s14.355 32 32 32 32-14.355 32-32-14.355-32-32-32zm0 44c-6.617 0-12-5.383-12-12s5.383-12 12-12 12 5.383 12 12-5.383 12-12 12z"/><path id="XMLID_1465_" d="m251 352c-17.645 0-32 14.355-32 32s14.355 32 32 32 32-14.355 32-32-14.355-32-32-32zm0 44c-6.617 0-12-5.383-12-12s5.383-12 12-12 12 5.383 12 12-5.383 12-12 12z"/><path id="XMLID_1472_" d="m233 307.28c2.63 0 5.21-1.07 7.069-2.93 1.86-1.86 2.931-4.44 2.931-7.07s-1.07-5.21-2.931-7.07c-1.859-1.86-4.439-2.93-7.069-2.93s-5.21 1.07-7.07 2.93-2.93 4.44-2.93 7.07 1.069 5.21 2.93 7.07c1.86 1.86 4.44 2.93 7.07 2.93z"/><path id="XMLID_1480_" d="m140.67 389c-2.64 0-5.21 1.07-7.07 2.93-1.87 1.86-2.93 4.44-2.93 7.07s1.06 5.21 2.93 7.07c1.86 1.86 4.431 2.93 7.07 2.93 2.63 0 5.21-1.07 7.07-2.93 1.859-1.86 2.93-4.44 2.93-7.07s-1.07-5.21-2.93-7.07-4.44-2.93-7.07-2.93z"/><path id="XMLID_1503_" d="m184 352c-2.63 0-5.21 1.07-7.07 2.93s-2.93 4.44-2.93 7.07 1.069 5.21 2.93 7.07c1.86 1.86 4.44 2.93 7.07 2.93s5.21-1.07 7.069-2.93c1.86-1.86 2.931-4.44 2.931-7.07s-1.07-5.21-2.931-7.07c-1.859-1.86-4.439-2.93-7.069-2.93z"/><path id="XMLID_1504_" d="m41 293.6c2.63 0 5.21-1.07 7.069-2.93 1.86-1.86 2.931-4.44 2.931-7.07s-1.07-5.211-2.931-7.07c-1.859-1.86-4.439-2.93-7.069-2.93s-5.21 1.07-7.07 2.93-2.93 4.44-2.93 7.07 1.069 5.21 2.93 7.07c1.86 1.86 4.44 2.93 7.07 2.93z"/></g></g></svg>